<?xml version="1.0" encoding="UTF-8" standalone="no"?>
<!-- Created with Inkscape (http://www.inkscape.org/) -->

<svg
   xmlns:dc="http://purl.org/dc/elements/1.1/"
   xmlns:cc="http://creativecommons.org/ns#"
   xmlns:rdf="http://www.w3.org/1999/02/22-rdf-syntax-ns#"
   xmlns:svg="http://www.w3.org/2000/svg"
   xmlns="http://www.w3.org/2000/svg"
   xmlns:sodipodi="http://sodipodi.sourceforge.net/DTD/sodipodi-0.dtd"
   xmlns:inkscape="http://www.inkscape.org/namespaces/inkscape"
   width="280"
   height="63"
   id="svg3980"
   version="1.1"
   inkscape:version="0.48.4 r9939"
   sodipodi:docname="gravento_logo_home.svg">
  <defs
     id="defs3982" />
  <sodipodi:namedview
     id="base"
     pagecolor="#ffffff"
     bordercolor="#666666"
     borderopacity="1.0"
     inkscape:pageopacity="0.0"
     inkscape:pageshadow="2"
     inkscape:zoom="2.8"
     inkscape:cx="169.37655"
     inkscape:cy="34.461918"
     inkscape:document-units="px"
     inkscape:current-layer="layer1"
     showgrid="false"
     inkscape:window-width="1920"
     inkscape:window-height="1058"
     inkscape:window-x="1912"
     inkscape:window-y="-8"
     inkscape:window-maximized="1" />
  <metadata
     id="metadata3985">
    <rdf:RDF>
      <cc:Work
         rdf:about="">
        <dc:format>image/svg+xml</dc:format>
        <dc:type
           rdf:resource="http://purl.org/dc/dcmitype/StillImage" />
        <dc:title></dc:title>
      </cc:Work>
    </rdf:RDF>
  </metadata>
  <g
     inkscape:label="Layer 1"
     inkscape:groupmode="layer"
     id="layer1"
     transform="translate(0,-989.36218)">
    <rect
       style="fill:none;stroke:#782121;stroke-width:0;stroke-miterlimit:4;stroke-opacity:1;stroke-dasharray:none"
       id="rect3948-5"
       width="280"
       height="63"
       x="-0.29360557"
       y="990.11218"
       inkscape:export-filename="G:\Documentos\Dropbox\Gravento\Design\logo_gravento_home.png"
       inkscape:export-xdpi="90"
       inkscape:export-ydpi="90" />
    <path
       inkscape:export-ydpi="89"
       inkscape:export-xdpi="89"
       inkscape:export-filename="F:\Documentos\Dropbox\gravento_logo.png"
       inkscape:transform-center-y="2.5147356"
       inkscape:connector-curvature="0"
       id="path3120"
       d="m 262.87076,1016.1431 c 0,8.8072 -7.11849,15.9468 -15.89961,15.9468 -8.78112,0 -15.89961,-7.1396 -15.89961,-15.9468 0,-8.8072 7.11849,-15.9469 15.89961,-15.9469 8.78112,0 15.89961,7.1397 15.89961,15.9469 z"
       style="font-size:133.52177429px;font-style:normal;font-weight:normal;line-height:125%;letter-spacing:0px;word-spacing:0px;fill:#840808;fill-opacity:1;stroke:#782121;stroke-width:0.67346567;stroke-linecap:round;stroke-linejoin:round;stroke-miterlimit:4;stroke-opacity:1;stroke-dasharray:none;font-family:Sans" />
    <path
       inkscape:export-ydpi="89"
       inkscape:export-xdpi="89"
       inkscape:export-filename="F:\Documentos\Dropbox\gravento_logo.png"
       inkscape:connector-curvature="0"
       id="path3912"
       style="font-size:136.32089233px;font-style:normal;font-variant:normal;font-weight:normal;font-stretch:normal;text-align:start;line-height:125%;letter-spacing:0px;word-spacing:0px;writing-mode:lr-tb;text-anchor:start;fill:#1c1c24;fill-opacity:1;stroke:none;font-family:Rondalo;-inkscape-font-specification:Rondalo"
       d="m 57.157621,1015.8791 0,17.0644 c 0,4.8688 -1.778645,9.0354 -5.335934,12.4999 -3.557355,3.4644 -7.793956,5.1966 -12.709869,5.1966 -3.370194,0 -6.272454,-0.5736 -8.706845,-1.7208 -2.43439,-1.1472 -4.634553,-3.0315 -6.600294,-5.6531 l 4.071575,-2.8094 c 1.358623,1.8729 2.950498,3.2191 4.775624,4.0384 1.82506,0.8193 3.978352,1.229 6.45994,1.229 3.370128,0 6.307737,-1.229 8.812891,-3.687 2.505088,-2.4579 3.757665,-5.3484 3.757665,-8.6714 -0.04752,-0.4686 -0.0707,-0.8201 -0.0707,-1.0544 0,-0.7486 0,-1.4858 0,-2.2115 0,-0.7258 0.02344,-1.4394 0.0707,-2.1408 -0.842907,0.9829 -2.270861,1.7901 -4.283733,2.4215 -2.013003,0.6315 -3.932392,0.9472 -5.758169,0.9472 -4.868781,0 -8.742909,-1.5097 -11.622319,-4.5291 -2.87941,-3.0195 -4.319147,-6.7993 -4.319147,-11.3395 0,-4.3073 1.556851,-7.9707 4.670618,-10.9902 3.113703,-3.0194 6.870652,-4.52907 11.270848,-4.5291 4.447328,3e-5 8.145362,1.4279 11.094103,4.2838 2.948675,2.8558 4.423046,6.741 4.423046,11.6555 z m -15.517149,-10.9526 c -2.950108,0 -5.478437,1.0297 -7.584987,3.089 -2.10655,2.0594 -3.159793,4.5871 -3.159793,7.5829 0,2.9501 1.030067,5.4081 3.090137,7.3739 2.060069,1.9658 4.611638,2.9487 7.654643,2.9487 2.995873,0 5.523811,-1.0065 7.583945,-3.0194 2.06007,-2.0129 3.090137,-4.5409 3.090137,-7.5839 0,-2.8559 -1.04185,-5.3017 -3.125486,-7.3375 -2.0837,-2.0358 -4.59992,-3.0537 -7.548596,-3.0537 z" />
    <path
       inkscape:export-ydpi="89"
       inkscape:export-xdpi="89"
       inkscape:export-filename="F:\Documentos\Dropbox\gravento_logo.png"
       inkscape:connector-curvature="0"
       id="path3914"
       style="font-size:136.32089233px;font-style:normal;font-variant:normal;font-weight:normal;font-stretch:normal;text-align:start;line-height:125%;letter-spacing:0px;word-spacing:0px;writing-mode:lr-tb;text-anchor:start;fill:#000000;fill-opacity:1;stroke:none;font-family:Rondalo;-inkscape-font-specification:Rondalo"
       d="m 67.962422,1017.2142 0,13.6228 -5.125924,0 0,-12.7099 c 0,-0.6086 0,-1.1354 0,-1.5804 0,-0.4451 0,-0.8076 0,-1.0876 0,-3.5116 0.292492,-6.0513 0.87754,-7.6193 0.584983,-1.5679 1.509719,-2.984 2.774014,-4.2484 1.544352,-1.5443 3.159467,-2.6326 4.84528,-3.2648 1.685748,-0.63214 3.698685,-0.94822 6.038812,-0.94826 l 0,5.12596 c -1.778645,0 -3.288364,0.2575 -4.529093,0.7725 -1.240793,0.5151 -2.259078,1.4866 -3.054787,2.9145 -0.795775,1.4279 -1.298993,2.6683 -1.509719,3.7212 -0.210727,1.0529 -0.316123,2.3987 -0.316123,4.0373 0,0.5615 0,0.983 0,1.2644 z" />
    <path
       inkscape:export-ydpi="89"
       inkscape:export-xdpi="89"
       inkscape:export-filename="F:\Documentos\Dropbox\gravento_logo.png"
       inkscape:connector-curvature="0"
       id="path3916"
       style="font-size:136.32089233px;font-style:normal;font-variant:normal;font-weight:normal;font-stretch:normal;text-align:start;line-height:125%;letter-spacing:0px;word-spacing:0px;writing-mode:lr-tb;text-anchor:start;fill:#000000;fill-opacity:1;stroke:none;font-family:Rondalo;-inkscape-font-specification:Rondalo"
       d="m 95.128711,1004.9265 c -2.950173,0 -5.478502,1.0297 -7.584987,3.089 -2.10655,2.0594 -3.159793,4.5871 -3.159793,7.5829 0,2.9959 1.04185,5.5356 3.125486,7.6193 2.0837,2.0837 4.623421,3.1255 7.619294,3.1255 2.995873,0 5.523809,-1.0768 7.583949,-3.2305 2.06007,-2.1537 3.09013,-4.752 3.09013,-7.795 0,-2.9016 -1.05363,-5.3588 -3.16083,-7.3718 -2.10727,-2.0129 -4.611705,-3.0194 -7.513249,-3.0194 z m 15.580299,8.23 7.17147,17.8219 -6.25097,-0.1414 -3.22945,-7.0225 c -1.35725,2.2472 -3.22984,4.0613 -5.61775,5.442 -2.38804,1.3808 -4.939216,2.0712 -7.653599,2.0712 -4.400196,0 -8.157145,-1.5565 -11.270848,-4.6695 -3.113767,-3.113 -4.670618,-6.846 -4.670618,-11.1991 0,-4.3073 1.556851,-7.9707 4.670618,-10.9902 3.113703,-3.0194 6.870652,-4.52907 11.270848,-4.5291 3.885911,3e-5 7.256429,1.264 10.111559,3.792 2.85513,2.528 3.98603,5.5785 5.46874,9.4247 z"
       sodipodi:nodetypes="cssssscccccccsssssccc" />
    <path
       inkscape:export-ydpi="89"
       inkscape:export-xdpi="89"
       inkscape:export-filename="F:\Documentos\Dropbox\gravento_logo.png"
       inkscape:connector-curvature="0"
       id="path3918"
       style="font-size:136.32089233px;font-style:normal;font-variant:normal;font-weight:normal;font-stretch:normal;text-align:start;line-height:125%;letter-spacing:0px;word-spacing:0px;writing-mode:lr-tb;text-anchor:start;fill:#000000;fill-opacity:1;stroke:none;font-family:Rondalo;-inkscape-font-specification:Rondalo"
       d="m 176.13738,1017.7049 -22.61038,0 c -1.03006,0 -1.79075,0.047 -2.28225,0.1404 -0.49143,0.094 -0.78432,0.4218 -0.87858,0.9847 -0.28006,1.4972 0.65646,3.1469 2.80943,4.9491 2.1529,1.8023 4.40019,2.7034 6.74175,2.7034 1.49716,0 3.04151,-0.3508 4.63306,-1.0522 1.0772,-0.4686 1.1382,1.4596 2.40262,0.5239 l 4.26837,1.0212 c -1.77864,1.4972 -3.55729,2.5969 -5.33593,3.299 -1.77871,0.7022 -3.81522,1.0533 -6.10958,1.0533 -4.30593,0 -7.96894,-1.5797 -10.9891,-4.7392 -3.02015,-3.1594 -4.5302,-6.9392 -4.5302,-11.3394 0,-4.2145 1.54507,-7.8196 4.63521,-10.8155 3.09014,-2.9958 6.78817,-4.49377 11.0941,-4.4938 4.40163,3e-5 8.20571,1.5801 11.41231,4.7402 3.20654,3.1602 4.80987,6.9168 4.80987,11.2698 0,0.7958 -0.0234,1.3808 -0.0707,1.7551 z m -5.96811,-5.7581 c -0.51579,-2.0587 -1.67475,-3.7434 -3.47696,-5.0542 -1.80228,-1.3107 -3.87341,-1.9661 -6.21354,-1.9661 -2.29436,0 -4.50663,0.819 -6.63675,2.4569 -2.13012,1.6379 -3.10153,3.2762 -2.91437,4.9148 0.0469,0.2344 0.0666,0.5075 0.44092,0.6011 0.37432,0.094 0.98697,0.031 1.45556,0.031 0.42145,0 0.72572,0 0.91288,0 l 13.06135,0 c 0.51428,0 0.91217,0 1.19366,0 0.79571,0 1.58373,0.1486 1.98162,0.01 0.39782,-0.14 0.27921,-0.5903 0.19563,-0.9922 z"
       sodipodi:nodetypes="ccccsscccssssscccccccsccccccccc" />
    <path
       inkscape:export-ydpi="89"
       inkscape:export-xdpi="89"
       inkscape:export-filename="F:\Documentos\Dropbox\gravento_logo.png"
       inkscape:connector-curvature="0"
       id="path3920"
       style="font-size:136.32089233px;font-style:normal;font-variant:normal;font-weight:normal;font-stretch:normal;text-align:start;line-height:125%;letter-spacing:0px;word-spacing:0px;writing-mode:lr-tb;text-anchor:start;fill:#000000;fill-opacity:1;stroke:none;font-family:Rondalo;-inkscape-font-specification:Rondalo"
       d="m 185.62424,1012.369 0,18.468 -4.84521,0 0,-20.2231 c 0,-3.7916 1.33434,-6.6239 4.00302,-8.4969 2.34013,-1.6386 5.35957,-2.4579 9.05832,-2.45794 3.65155,4e-5 6.64743,0.86584 8.98755,2.59724 2.66869,1.9673 4.00303,4.7531 4.00303,8.3576 l 0,20.2231 -5.12593,0 0,-17.8359 c -6e-5,-2.8558 -0.71401,-4.9273 -2.1419,-6.2146 -1.42795,-1.2871 -3.33556,-1.9307 -5.72275,-1.9308 -2.29443,1e-4 -4.23738,0.6437 -5.82887,1.9308 -1.59148,1.2873 -2.38726,3.1481 -2.38726,5.5825 z" />
    <path
       inkscape:export-ydpi="89"
       inkscape:export-xdpi="89"
       inkscape:export-filename="F:\Documentos\Dropbox\gravento_logo.png"
       inkscape:connector-curvature="0"
       id="path3922"
       style="font-size:136.32089233px;font-style:normal;font-variant:normal;font-weight:normal;font-stretch:normal;text-align:start;line-height:125%;letter-spacing:0px;word-spacing:0px;writing-mode:lr-tb;text-anchor:start;fill:#000000;fill-opacity:1;stroke:none;font-family:Rondalo;-inkscape-font-specification:Rondalo"
       d="m 218.40509,990.81079 0,4.42521 c 0,0.7015 0.0117,1.46189 0.0352,2.28119 0.0234,0.81935 0.10533,1.32259 0.24536,1.50971 0.18859,0.18718 0.53999,0.29254 1.05434,0.31609 0.51429,0.0236 1.07577,0.0354 1.68432,0.0353 l 4.56451,0 0,5.26736 -4.35235,0 c -0.65575,0 -1.31149,0.011 -1.96724,0.034 -0.65574,0.023 -1.03,0.2215 -1.1229,0.5958 -0.0469,0.1414 -0.0707,0.5165 -0.0707,1.125 0,0.6087 0,1.1001 0,1.4744 0,0.6086 0,1.1704 0,1.6854 0,0.5151 0,0.819 0,0.9118 l 0,4.5645 c 0,2.013 0.18716,3.5581 0.56148,4.6353 0.37425,1.0772 0.88925,2.0365 1.54507,2.878 0.37425,0.5628 1.25218,1.2422 2.63366,2.0379 1.38147,0.7958 2.51654,1.1936 3.40515,1.1936 l 0,5.2653 c -2.34013,-0.2343 -4.42305,-0.8311 -6.24883,-1.7905 -1.82584,-0.9593 -3.39447,-2.3754 -4.70596,-4.2484 -0.98287,-1.4043 -1.6379,-2.8319 -1.96509,-4.2827 -0.32719,-1.4507 -0.49072,-2.9254 -0.49072,-4.4241 0,-1.03 0,-1.7322 0,-2.1065 l 0,-3.4416 c 0,-0.1872 0,-0.3272 0,-0.42 0,-0.4215 0,-0.7729 0,-1.0544 0,-0.5143 0,-0.9121 0,-1.1936 0,-1.4515 -0.0704,-2.3876 -0.21112,-2.8084 -0.14068,-0.4207 -0.74968,-0.631 -1.82688,-0.6311 -0.56142,10e-5 -0.98287,10e-5 -1.2643,0 l 0,-5.26734 c 0.37569,3e-5 0.68003,3e-5 0.91289,0 1.21716,3e-5 1.89654,-0.11712 2.03794,-0.35145 0.0929,-0.0928 0.16288,-0.42035 0.21001,-0.98255 0.0469,-0.56213 0.0707,-1.05395 0.0707,-1.47543 0,-0.79571 0,-1.28717 0,-1.47435 l 0,-4.28377 z" />
    <path
       inkscape:export-ydpi="89"
       inkscape:export-xdpi="89"
       inkscape:export-filename="F:\Documentos\Dropbox\gravento_logo.png"
       d="m 67.962422,1017.2142 0,13.6228 -5.125924,0 0,-12.7099 c 0,-0.6086 0,-1.1354 0,-1.5804 0,-0.4451 0,-0.8076 0,-1.0876 0,-3.5116 0.292492,-6.0513 0.87754,-7.6193 0.584983,-1.5679 1.509719,-2.984 2.774014,-4.2484 1.544352,-1.5443 3.159467,-2.6326 4.84528,-3.2648 1.685748,-0.63214 3.698685,-0.94822 6.038812,-0.94826 l 0,5.12596 c -1.778645,0 -3.288364,0.2575 -4.529093,0.7725 -1.240793,0.5151 -2.259078,1.4866 -3.054787,2.9145 -0.795775,1.4279 -1.298993,2.6683 -1.509719,3.7212 -0.210727,1.0529 -0.316123,2.3987 -0.316123,4.0373 0,0.5615 0,0.983 0,1.2644 z"
       style="font-size:136.32089233px;font-style:normal;font-variant:normal;font-weight:normal;font-stretch:normal;text-align:start;line-height:125%;letter-spacing:0px;word-spacing:0px;writing-mode:lr-tb;text-anchor:start;fill:#1c1c24;fill-opacity:1;stroke:#1c1c24;stroke-width:0.65099359;stroke-miterlimit:4;stroke-opacity:1;stroke-dasharray:none;font-family:Rondalo;-inkscape-font-specification:Rondalo"
       id="path3924"
       inkscape:connector-curvature="0" />
    <path
       inkscape:export-ydpi="89"
       inkscape:export-xdpi="89"
       inkscape:export-filename="F:\Documentos\Dropbox\gravento_logo.png"
       sodipodi:nodetypes="cssssscccccccsssssccc"
       d="m 95.128711,1004.9265 c -2.950173,0 -5.478502,1.0297 -7.584987,3.089 -2.10655,2.0594 -3.159793,4.5871 -3.159793,7.5829 0,2.9959 1.04185,5.5356 3.125486,7.6193 2.0837,2.0837 4.623421,3.1255 7.619294,3.1255 2.995873,0 5.523809,-1.0768 7.583949,-3.2305 2.06007,-2.1537 3.09013,-4.752 3.09013,-7.795 0,-2.9016 -1.05363,-5.3588 -3.16083,-7.3718 -2.10727,-2.0129 -4.611705,-3.0194 -7.513249,-3.0194 z m 15.580299,8.23 7.17147,17.8219 -6.25097,-0.1414 -3.22945,-7.0225 c -1.35725,2.2472 -3.22984,4.0613 -5.61775,5.442 -2.38804,1.3808 -4.939216,2.0712 -7.653599,2.0712 -4.400196,0 -8.157145,-1.5565 -11.270848,-4.6695 -3.113767,-3.113 -4.670618,-6.846 -4.670618,-11.1991 0,-4.3073 1.556851,-7.9707 4.670618,-10.9902 3.113703,-3.0194 6.870652,-4.52907 11.270848,-4.5291 3.885911,3e-5 7.256429,1.264 10.111559,3.792 2.85513,2.528 3.98603,5.5785 5.46874,9.4247 z"
       style="font-size:136.32089233px;font-style:normal;font-variant:normal;font-weight:normal;font-stretch:normal;text-align:start;line-height:125%;letter-spacing:0px;word-spacing:0px;writing-mode:lr-tb;text-anchor:start;fill:#1c1c24;fill-opacity:1;stroke:#1c1c24;stroke-width:0.65099359;stroke-miterlimit:4;stroke-opacity:1;stroke-dasharray:none;font-family:Rondalo;-inkscape-font-specification:Rondalo"
       id="path3926"
       inkscape:connector-curvature="0" />
    <path
       inkscape:export-ydpi="89"
       inkscape:export-xdpi="89"
       inkscape:export-filename="F:\Documentos\Dropbox\gravento_logo.png"
       sodipodi:nodetypes="ccccsscccssssscccccccsccccccccc"
       d="m 176.13738,1017.7049 -22.61038,0 c -1.03006,0 -1.79075,0.047 -2.28225,0.1404 -0.49143,0.094 -0.78432,0.4218 -0.87858,0.9847 -0.28006,1.4972 0.65646,3.1469 2.80943,4.9491 2.1529,1.8023 4.40019,2.7034 6.74175,2.7034 1.49716,0 3.04151,-0.3508 4.63306,-1.0522 1.29294,-0.52 1.86776,0.011 3.59446,0.565 l 3.07653,0.9801 c -1.77864,1.4972 -3.55729,2.5969 -5.33593,3.299 -1.77871,0.7022 -3.81522,1.0533 -6.10958,1.0533 -4.30593,0 -7.96894,-1.5797 -10.9891,-4.7392 -3.02015,-3.1594 -4.5302,-6.9392 -4.5302,-11.3394 0,-4.2145 1.54507,-7.8196 4.63521,-10.8155 3.09014,-2.9958 6.78817,-4.49377 11.0941,-4.4938 4.40163,3e-5 8.20571,1.5801 11.41231,4.7402 3.20654,3.1602 4.80987,6.9168 4.80987,11.2698 0,0.7958 -0.0234,1.3808 -0.0707,1.7551 z m -5.96811,-5.7581 c -0.51579,-2.0587 -1.67475,-3.7434 -3.47696,-5.0542 -1.80228,-1.3107 -3.87341,-1.9661 -6.21354,-1.9661 -2.29436,0 -4.50663,0.819 -6.63675,2.4569 -2.13012,1.6379 -3.10153,3.2762 -2.91437,4.9148 0.0469,0.2344 0.0666,0.5075 0.44092,0.6011 0.37432,0.094 0.98697,0.031 1.45556,0.031 0.42145,0 0.72572,0 0.91288,0 l 13.06135,0 c 0.51428,0 0.91217,0 1.19366,0 0.79571,0 1.58373,0.1486 1.98162,0.01 0.39782,-0.14 0.27921,-0.5903 0.19563,-0.9922 z"
       style="font-size:136.32089233px;font-style:normal;font-variant:normal;font-weight:normal;font-stretch:normal;text-align:start;line-height:125%;letter-spacing:0px;word-spacing:0px;writing-mode:lr-tb;text-anchor:start;fill:#1c1c24;fill-opacity:1;stroke:#1c1c24;stroke-width:0.65099359;stroke-miterlimit:4;stroke-opacity:1;stroke-dasharray:none;font-family:Rondalo;-inkscape-font-specification:Rondalo"
       id="path3928"
       inkscape:connector-curvature="0" />
    <path
       inkscape:export-ydpi="89"
       inkscape:export-xdpi="89"
       inkscape:export-filename="F:\Documentos\Dropbox\gravento_logo.png"
       d="m 185.62424,1012.369 0,18.468 -4.84521,0 0,-20.2231 c 0,-3.7916 1.33434,-6.6239 4.00302,-8.4969 2.34013,-1.6386 5.35957,-2.4579 9.05832,-2.45794 3.65155,4e-5 6.64743,0.86584 8.98755,2.59724 2.66869,1.9673 4.00303,4.7531 4.00303,8.3576 l 0,20.2231 -5.12593,0 0,-17.8359 c -6e-5,-2.8558 -0.71401,-4.9273 -2.1419,-6.2146 -1.42795,-1.2871 -3.33556,-1.9307 -5.72275,-1.9308 -2.29443,1e-4 -4.23738,0.6437 -5.82887,1.9308 -1.59148,1.2873 -2.38726,3.1481 -2.38726,5.5825 z"
       style="font-size:136.32089233px;font-style:normal;font-variant:normal;font-weight:normal;font-stretch:normal;text-align:start;line-height:125%;letter-spacing:0px;word-spacing:0px;writing-mode:lr-tb;text-anchor:start;fill:#1c1c24;fill-opacity:1;stroke:#1c1c24;stroke-width:0.65099359;stroke-miterlimit:4;stroke-opacity:1;stroke-dasharray:none;font-family:Rondalo;-inkscape-font-specification:Rondalo"
       id="path3930"
       inkscape:connector-curvature="0" />
    <path
       inkscape:export-ydpi="89"
       inkscape:export-xdpi="89"
       inkscape:export-filename="F:\Documentos\Dropbox\gravento_logo.png"
       d="m 218.40509,990.81079 0,4.42521 c 0,0.7015 0.0117,1.46189 0.0352,2.28119 0.0234,0.81935 0.10533,1.32259 0.24536,1.50971 0.18859,0.18718 0.53999,0.29254 1.05434,0.31609 0.51429,0.0236 1.07577,0.0354 1.68432,0.0353 l 4.56451,0 0,5.26741 -4.35235,0 c -0.65575,0 -1.31149,0.011 -1.96724,0.034 -0.65574,0.023 -1.03,0.2215 -1.1229,0.5958 -0.0469,0.1414 -0.0707,0.5165 -0.0707,1.125 0,0.6087 0,1.1001 0,1.4744 0,0.6086 0,1.1704 0,1.6854 0,0.5151 0,0.819 0,0.9118 l 0,4.5645 c 0,2.013 0.18716,3.558 0.56148,4.6353 0.37425,1.0771 0.88925,2.0365 1.54507,2.878 0.37425,0.5628 1.25218,1.2422 2.63366,2.0379 1.38147,0.7958 2.51654,1.1936 3.40515,1.1936 l 0,5.2653 c -2.34013,-0.2343 -4.42305,-0.8311 -6.24883,-1.7905 -1.82584,-0.9593 -3.39447,-2.3754 -4.70596,-4.2484 -0.98287,-1.4043 -1.6379,-2.8319 -1.96509,-4.2827 -0.32719,-1.4507 -0.49072,-2.9254 -0.49072,-4.4241 0,-1.03 0,-1.7322 0,-2.1065 l 0,-3.4416 c 0,-0.1872 0,-0.3272 0,-0.42 0,-0.4215 0,-0.7729 0,-1.0544 0,-0.5143 0,-0.9121 0,-1.1936 0,-1.4515 -0.0704,-2.3876 -0.21112,-2.8084 -0.14068,-0.4207 -0.74968,-0.631 -1.82688,-0.6311 -0.56142,10e-5 -0.98287,10e-5 -1.2643,0 l 0,-5.26739 c 0.37569,3e-5 0.68003,3e-5 0.91289,0 1.21716,3e-5 1.89654,-0.11712 2.03794,-0.35145 0.0929,-0.0928 0.16288,-0.42035 0.21001,-0.98255 0.0469,-0.56213 0.0707,-1.05395 0.0707,-1.47543 0,-0.79571 0,-1.28717 0,-1.47435 l 0,-4.28377 z"
       style="font-size:136.32089233px;font-style:normal;font-variant:normal;font-weight:normal;font-stretch:normal;text-align:start;line-height:125%;letter-spacing:0px;word-spacing:0px;writing-mode:lr-tb;text-anchor:start;fill:#1c1c24;fill-opacity:1;stroke:#1c1c24;stroke-width:0.65099359;stroke-miterlimit:4;stroke-opacity:1;stroke-dasharray:none;font-family:Rondalo;-inkscape-font-specification:Rondalo"
       id="path3932"
       inkscape:connector-curvature="0" />
    <g
       inkscape:export-ydpi="89"
       inkscape:export-xdpi="89"
       inkscape:export-filename="F:\Documentos\Dropbox\gravento_logo.png"
       id="g3938"
       style="font-size:86.54895782px;font-style:normal;font-weight:normal;line-height:125%;letter-spacing:0px;word-spacing:0px;fill:#1c1c24;fill-opacity:1;stroke:#1c1c24;stroke-opacity:1;font-family:Sans"
       transform="matrix(0.73073317,0,0,0.50169919,-8.9896446,874.07968)">
      <path
         inkscape:connector-curvature="0"
         id="path3940"
         style="font-variant:normal;font-stretch:normal;fill:#1c1c24;fill-opacity:1;stroke:#1c1c24;font-family:Rondalo;-inkscape-font-specification:Rondalo"
         d="m 188.08409,290.03482 c 0.51766,2e-5 1.67102,-2.27851 3.46006,-6.8356 1.26954,-3.28922 3.15936,-8.51143 5.66947,-15.66666 2.51005,-7.15513 4.51521,-12.66524 6.01548,-16.53035 l 8.39394,0 -23.80043,62.22819 -23.5416,-62.22819 8.82975,0 c 3.23114,9.40471 5.85655,16.99218 7.87625,22.76242 3.86503,10.84682 6.23072,16.27021 7.09708,16.27019 z" />
    </g>
  </g>
</svg>
